<mxfile host="app.diagrams.net" modified="2022-01-06T03:51:27.721Z" agent="5.0 (Windows NT 10.0; Win64; x64) AppleWebKit/537.36 (KHTML, like Gecko) Chrome/72.0.3626.119 Safari/537.36" etag="O0eNBfGWkTWi8R_XuUZA" version="16.2.1" type="github">
  <diagram id="rv1kyUY3g4Th_ji0K8dO" name="第 1 页">
    <mxGraphModel dx="1422" dy="762" grid="1" gridSize="10" guides="1" tooltips="1" connect="1" arrows="1" fold="1" page="1" pageScale="1" pageWidth="827" pageHeight="1169" math="0" shadow="0">
      <root>
        <mxCell id="0" />
        <mxCell id="1" parent="0" />
        <mxCell id="2168gwuTDL6JD-4yshws-1" value="" style="ellipse;whiteSpace=wrap;html=1;aspect=fixed;" vertex="1" parent="1">
          <mxGeometry x="430" y="80" width="50" height="50" as="geometry" />
        </mxCell>
        <mxCell id="2168gwuTDL6JD-4yshws-4" value="邮件通知" style="edgeStyle=orthogonalEdgeStyle;rounded=0;orthogonalLoop=1;jettySize=auto;html=1;" edge="1" parent="1" source="2168gwuTDL6JD-4yshws-2" target="2168gwuTDL6JD-4yshws-3">
          <mxGeometry relative="1" as="geometry" />
        </mxCell>
        <mxCell id="2168gwuTDL6JD-4yshws-2" value="线上服务定时检测" style="rounded=1;whiteSpace=wrap;html=1;" vertex="1" parent="1">
          <mxGeometry x="395" y="180" width="120" height="60" as="geometry" />
        </mxCell>
        <mxCell id="2168gwuTDL6JD-4yshws-3" value="" style="rounded=1;whiteSpace=wrap;html=1;" vertex="1" parent="1">
          <mxGeometry x="395" y="300" width="120" height="60" as="geometry" />
        </mxCell>
      </root>
    </mxGraphModel>
  </diagram>
</mxfile>
